<?xml version="1.0" standalone="no"?>
<!DOCTYPE svg PUBLIC "-//W3C//DTD SVG 20010904//EN"
 "http://www.w3.org/TR/2001/REC-SVG-20010904/DTD/svg10.dtd">
<svg version="1.0" xmlns="http://www.w3.org/2000/svg"
 width="540.000000pt" height="812.000000pt" viewBox="0 0 540.000000 812.000000"
 preserveAspectRatio="xMidYMid meet">

<g transform="translate(0.000000,812.000000) scale(0.100000,-0.100000)"
fill="#000000" stroke="none">
<path d="M2299 6646 c-2 -2 -49 -9 -104 -14 -123 -12 -222 -49 -276 -103 -41
-41 -56 -82 -104 -279 -15 -63 -43 -165 -61 -227 -61 -199 -62 -289 -9 -468
13 -44 31 -129 40 -190 9 -60 32 -156 51 -212 19 -56 34 -115 34 -130 0 -16
-13 -47 -29 -69 -33 -45 -178 -329 -191 -374 -11 -38 11 -61 79 -87 67 -24 69
-27 60 -76 -9 -49 -28 -94 -154 -357 -119 -250 -338 -756 -403 -930 -27 -74
-70 -205 -95 -290 -25 -85 -67 -225 -92 -310 -25 -85 -93 -330 -150 -545 -57
-214 -129 -475 -160 -580 -31 -104 -68 -226 -81 -270 -33 -115 -57 -261 -52
-324 6 -68 37 -99 132 -131 44 -14 67 -27 68 -38 1 -9 2 -58 2 -108 1 -75 4
-96 20 -113 19 -21 113 -61 270 -112 113 -38 223 -90 258 -122 43 -40 220 -55
343 -28 102 22 114 23 150 17 19 -4 47 -17 62 -30 24 -20 42 -24 123 -28 53
-3 105 -10 115 -15 11 -6 120 -13 242 -17 196 -5 222 -4 217 9 -5 11 -2 13 10
9 9 -3 16 -10 16 -15 0 -4 138 -11 308 -13 169 -3 369 -8 444 -11 108 -5 148
-3 189 9 29 9 74 16 100 16 l48 0 3 77 3 78 150 6 c156 5 180 11 243 58 38 28
72 88 72 126 0 14 -11 92 -25 173 -13 81 -36 235 -50 343 -31 243 -79 507
-144 800 -64 284 -78 338 -156 594 -73 239 -96 330 -124 500 -12 66 -30 153
-41 192 -11 40 -20 84 -20 98 0 14 -12 49 -26 77 -14 28 -30 80 -35 116 -7 46
-20 81 -46 125 -35 55 -38 68 -45 161 -25 335 -20 462 22 561 17 39 23 45 50
45 26 0 118 -16 208 -36 12 -2 27 -16 32 -29 13 -33 58 -33 108 0 95 63 264
50 348 -26 17 -16 25 -18 53 -8 19 7 50 9 74 4 23 -3 51 -7 62 -6 11 0 46 -5
78 -11 42 -8 64 -8 82 0 23 11 25 17 25 80 0 94 -28 197 -106 387 -36 88 -71
175 -78 194 -13 34 -13 36 55 135 133 196 132 276 -5 385 -64 51 -81 73 -77
101 1 8 24 72 51 141 27 69 57 157 65 195 22 91 22 356 1 446 -45 192 -97 253
-314 364 -85 44 -125 58 -194 69 -48 8 -100 21 -117 29 -28 15 -31 15 -48 -7
-10 -13 -43 -41 -73 -62 -30 -21 -76 -57 -102 -81 -26 -24 -52 -44 -57 -44
-23 0 -84 -67 -113 -124 -17 -34 -36 -68 -43 -76 -7 -8 -18 -35 -25 -60 -15
-56 -76 -119 -116 -121 -16 -1 -47 -3 -69 -4 -22 -1 -65 -12 -95 -24 -74 -31
-171 -61 -195 -61 -11 0 -63 -14 -115 -30 -68 -22 -114 -30 -166 -30 -57 0
-81 -5 -110 -22 -47 -28 -116 -29 -163 -2 -18 10 -56 31 -84 45 -57 29 -182
137 -217 187 -34 48 -32 114 3 175 15 25 27 52 27 59 0 32 71 158 123 219 32
36 57 69 57 73 0 7 -14 8 -21 2z m1326 -1706 c-3 -5 -10 -10 -16 -10 -5 0 -9
5 -9 10 0 6 7 10 16 10 8 0 12 -4 9 -10z"/>
</g>
</svg>
